<svg xmlns="http://www.w3.org/2000/svg" width="16.415" height="19.667" viewBox="0 0 16.415 19.667"><g transform="translate(-567.608 -1235.862)"><g transform="translate(-27.5 27.5)"><rect width="15.415" height="18.667" transform="translate(595.608 1208.862)" fill="none" stroke="#040000" stroke-miterlimit="10" stroke-width="1"/><path d="M585.774,1212.722l-.223.334a3.051,3.051,0,0,1,2.094,2.919c0,.6-.161,1.137-.476,1.137h-3.911c-.533,0-.691-.19-.451-.664a27.4,27.4,0,0,1,2.5-3.429c.116-.142.21-.365-.2-.476a7.509,7.509,0,0,0-1.691-.16c-2.94,0-4.99,1.591-4.99,3.639,0,1.887,1.777,3.648,4.983,3.648a5.635,5.635,0,0,0,4.139-1.515h-.85a4.779,4.779,0,0,1-3.283,1.065c-2.587,0-4.224-1.342-4.224-3.2,0-1.711,1.854-3.247,4.193-3.247.28,0,.37.061.075.428a32.176,32.176,0,0,0-2.168,3.075c-.539.924.01,1.675,1.219,1.675H587.4c.3,0,.474-.173.65-.485a2.974,2.974,0,0,0,.361-1.445,3.772,3.772,0,0,0-2.634-3.3Z" transform="translate(19.688 1.979)"/></g></g></svg>
