<svg xmlns="http://www.w3.org/2000/svg" width="43.845" height="30.691" viewBox="0 0 43.845 30.691"><path d="M83.335,317.831a5.491,5.491,0,0,0-3.876-3.876c-3.419-.916-17.13-.916-17.13-.916s-13.711,0-17.13.916a5.491,5.491,0,0,0-3.876,3.876c-.916,3.419-.916,10.553-.916,10.553s0,7.134.916,10.553a5.491,5.491,0,0,0,3.876,3.876c3.419.916,17.13.916,17.13.916s13.711,0,17.13-.916a5.49,5.49,0,0,0,3.876-3.876c.916-3.419.916-10.553.916-10.553S84.251,321.251,83.335,317.831Z" transform="translate(-40.406 -313.039)" fill="#d9d9d9"/><path d="M89,350.49l11.391-6.577L89,337.336Z" transform="translate(-71.462 -328.567)" fill="#f5f5f5"/></svg>