<svg xmlns="http://www.w3.org/2000/svg" width="44.003" height="44.002" viewBox="0 0 44.003 44.002"><path d="M56.856,25.784h-18.6a12.7,12.7,0,0,0-12.7,12.7v18.6a12.7,12.7,0,0,0,12.7,12.7h18.6a12.7,12.7,0,0,0,12.7-12.7v-18.6A12.7,12.7,0,0,0,56.856,25.784ZM65.5,57.413a8.431,8.431,0,0,1-8.431,8.431H38.037a8.431,8.431,0,0,1-8.431-8.431V38.376a8.431,8.431,0,0,1,8.431-8.431H57.074A8.431,8.431,0,0,1,65.5,38.376Z" transform="translate(-25.554 -25.784)" fill="#d9d9d9"/><path d="M70.942,60.1A11.417,11.417,0,1,0,82.359,71.522,11.417,11.417,0,0,0,70.942,60.1Zm0,18.818a7.4,7.4,0,1,1,7.4-7.4A7.4,7.4,0,0,1,70.942,78.923Z" transform="translate(-48.941 -49.412)" fill="#d9d9d9"/><ellipse cx="2.66" cy="2.66" rx="2.66" ry="2.66" transform="translate(31.14 7.599)" fill="#d9d9d9"/></svg>