<svg xmlns="http://www.w3.org/2000/svg" width="44.002" height="44.002" viewBox="0 0 44.002 44.002"><path d="M56.856,25.784h-18.6a12.7,12.7,0,0,0-12.7,12.7v18.6a12.7,12.7,0,0,0,12.7,12.7h18.6a12.7,12.7,0,0,0,12.7-12.7v-18.6A12.7,12.7,0,0,0,56.856,25.784ZM65.5,57.413a8.431,8.431,0,0,1-8.431,8.431H38.037a8.431,8.431,0,0,1-8.431-8.431V38.376a8.431,8.431,0,0,1,8.431-8.431H57.074A8.431,8.431,0,0,1,65.5,38.376Z" transform="translate(-25.554 -25.784)"/><path d="M70.942,60.1A11.417,11.417,0,1,0,82.359,71.522,11.417,11.417,0,0,0,70.942,60.1Zm0,18.818a7.4,7.4,0,1,1,7.4-7.4A7.4,7.4,0,0,1,70.942,78.923Z" transform="translate(-48.941 -49.412)"/><path d="M2.66,0A2.66,2.66,0,1,1,0,2.66,2.66,2.66,0,0,1,2.66,0Z" transform="translate(31.14 7.599)"/></svg>