<svg width="35" height="18" viewBox="0 0 35 18" fill="none" xmlns="http://www.w3.org/2000/svg">
<path id="Path 14785" fill-rule="evenodd" clip-rule="evenodd" d="M17.5 18C27.1661 18 35.0009 13.9713 35.0009 8.9991C35.0009 4.02693 27.1652 0 17.5 0C7.83478 0 0 4.03232 0 8.9982C0 13.9641 7.83478 18 17.5 18ZM20.7944 13.5835C20.5022 14.2639 20.0008 15.7154 18.8451 16.2935C18.4788 16.4635 18.0813 16.5552 17.6779 16.5628C17.5885 16.5628 17.5286 16.5628 17.4991 16.5628C14.5395 16.5856 11.5924 16.1746 8.75089 15.3429C8.72855 15.3366 8.67135 15.3133 8.65347 15.307C8.42109 15.2289 8.30222 15.1203 8.30222 14.9874C8.30489 14.9323 8.31917 14.8783 8.34413 14.8291C8.36909 14.7799 8.40415 14.7366 8.44701 14.702C8.48098 14.6661 8.53639 14.6212 8.60432 14.5601C10.3123 13.2619 12.2122 12.2405 14.2351 11.5332C15.571 10.986 16.9478 10.5454 18.3527 10.2154C19.2411 10.0269 22.5364 9.52065 20.7962 13.5826M29.6356 4.51167C29.6613 4.45315 29.7022 4.40271 29.7542 4.36572C29.8061 4.32873 29.8671 4.30658 29.9305 4.30162C30.0615 4.30058 30.1892 4.3425 30.2943 4.42101C32.35 5.6912 33.5682 7.27648 33.5682 8.9991C33.5682 12.1041 29.5945 14.7711 23.9155 15.9372C23.5508 16.009 23.3086 16.0072 23.2255 15.9147C23.1932 15.8756 23.1756 15.8264 23.1756 15.7756C23.1756 15.7248 23.1932 15.6756 23.2255 15.6364C23.2691 15.5612 23.3196 15.4903 23.3765 15.4246C26.4717 11.7612 28.8285 6.35817 29.4971 4.79892C29.548 4.69031 29.5972 4.58528 29.6374 4.51526M14.2583 4.39587C14.5506 3.71813 15.0529 2.26661 16.2067 1.68941C16.5731 1.51868 16.971 1.42694 17.3749 1.42011C17.4642 1.42011 17.5232 1.42011 17.5483 1.42011C20.5115 1.39618 23.4623 1.80716 26.3072 2.64004C26.326 2.64542 26.3841 2.66876 26.4019 2.67594C26.6343 2.75404 26.7541 2.85996 26.7541 2.99461C26.7505 3.04944 26.7358 3.10296 26.7109 3.15189C26.686 3.20081 26.6514 3.24413 26.6093 3.27917C26.5735 3.31418 26.5199 3.36086 26.4502 3.42011C24.7426 4.71879 22.8425 5.7402 20.8195 6.44704C19.4835 6.99429 18.1067 7.43521 16.7019 7.76571C15.8081 7.95512 12.5172 8.45871 14.2574 4.39677M11.0827 2.05745C11.4483 1.98743 11.6887 1.98743 11.7763 2.08079C11.8058 2.12081 11.8217 2.16926 11.8217 2.21903C11.8217 2.2688 11.8058 2.31726 11.7763 2.35727C11.7291 2.43226 11.6766 2.50367 11.619 2.57092C8.52477 6.23339 6.16701 11.6373 5.49847 13.1984C5.44842 13.3061 5.39837 13.412 5.35636 13.482C5.33116 13.5405 5.29054 13.591 5.23888 13.628C5.18722 13.6651 5.12648 13.6872 5.0632 13.6921C4.9323 13.6919 4.80476 13.6504 4.69854 13.5736C2.64288 12.3016 1.42288 10.7163 1.42288 8.99551C1.43003 5.89408 5.40194 3.22442 11.0827 2.05745Z" fill="#002C5F"/>
</svg>
